<svg xmlns="http://www.w3.org/2000/svg" width="33.371" height="7.841" viewBox="0 0 33.371 7.841">
  <g id="그룹_449" data-name="그룹 449" transform="translate(-181 -15)">
    <path id="패스_1645" data-name="패스 1645" d="M0,0H2.01V7.841H0Z" transform="translate(181 15)"/>
    <path id="패스_1628" data-name="패스 1628" d="M0,0H2.01V7.841H0Z" transform="translate(192.659 15)"/>
    <path id="패스_1629" data-name="패스 1629" d="M0,0H2.01V7.841H0Z" transform="translate(200.3 15)"/>
    <path id="패스_1622" data-name="패스 1622" d="M0,0H2.01V7.841H0Z" transform="translate(203.515 15)"/>
    <path id="패스_1620" data-name="패스 1620" d="M0,0H2.01V7.841H0Z" transform="translate(211.154 15)"/>
    <path id="패스_1642" data-name="패스 1642" d="M0,0H.4V7.841H0Z" transform="translate(185.824 15)"/>
    <path id="패스_1630" data-name="패스 1630" d="M0,0H.4V7.841H0Z" transform="translate(191.453 15)"/>
    <path id="패스_1640" data-name="패스 1640" d="M0,0H.4V7.841H0Z" transform="translate(187.433 15)"/>
    <path id="패스_1631" data-name="패스 1631" d="M0,0H.4V7.841H0Z" transform="translate(197.083 15)"/>
    <path id="패스_1632" data-name="패스 1632" d="M0,0H.4V7.841H0Z" transform="translate(202.712 15)"/>
    <path id="패스_1623" data-name="패스 1623" d="M0,0H.4V7.841H0Z" transform="translate(208.341 15)"/>
    <path id="패스_1621" data-name="패스 1621" d="M0,0H.4V7.841H0Z" transform="translate(213.969 15)"/>
    <path id="패스_1643" data-name="패스 1643" d="M0,0H.8V7.841H0Z" transform="translate(183.815 15)"/>
    <path id="패스_1644" data-name="패스 1644" d="M0,0H.4V7.841H0Z" transform="translate(185.021 15)"/>
    <path id="패스_1633" data-name="패스 1633" d="M0,0H.8V7.841H0Z" transform="translate(189.444 15)"/>
    <path id="패스_1639" data-name="패스 1639" d="M0,0H.8V7.841H0Z" transform="translate(188.238 15)"/>
    <path id="패스_1634" data-name="패스 1634" d="M0,0H.4V7.841H0Z" transform="translate(190.65 15)"/>
    <path id="패스_1641" data-name="패스 1641" d="M0,0H.4V7.841H0Z" transform="translate(186.629 15)"/>
    <path id="패스_1635" data-name="패스 1635" d="M0,0H.8V7.841H0Z" transform="translate(195.072 15)"/>
    <path id="패스_1636" data-name="패스 1636" d="M0,0H.4V7.841H0Z" transform="translate(196.279 15)"/>
    <path id="패스_1637" data-name="패스 1637" d="M0,0H.8V7.841H0Z" transform="translate(198.289 15)"/>
    <path id="패스_1638" data-name="패스 1638" d="M0,0H.4V7.841H0Z" transform="translate(199.495 15)"/>
    <path id="패스_1624" data-name="패스 1624" d="M0,0H.8V7.841H0Z" transform="translate(206.33 15)"/>
    <path id="패스_1625" data-name="패스 1625" d="M0,0H.4V7.841H0Z" transform="translate(207.536 15)"/>
    <path id="패스_1626" data-name="패스 1626" d="M0,0H.8V7.841H0Z" transform="translate(209.144 15)"/>
    <path id="패스_1627" data-name="패스 1627" d="M0,0H.4V7.841H0Z" transform="translate(210.35 15)"/>
  </g>
</svg>
