<svg xmlns="http://www.w3.org/2000/svg" width="13.702" height="140" viewBox="0 0 13.702 140">
  <g id="favoblackticket" transform="translate(13.702) rotate(90)">
    <path id="패스_1645" data-name="패스 1645" d="M0,0H7.081V13.7H0Z" transform="translate(0 0)"/>
    <path id="패스_1628" data-name="패스 1628" d="M0,0H7.081V13.7H0Z" transform="translate(49.417 0)"/>
    <path id="패스_1629" data-name="패스 1629" d="M0,0H7.081V13.7H0Z" transform="translate(81.8 0)"/>
    <path id="패스_1622" data-name="패스 1622" d="M0,0H7.081V13.7H0Z" transform="translate(95.429 0)"/>
    <path id="패스_1620" data-name="패스 1620" d="M0,0H7.081V13.7H0Z" transform="translate(128.669 0)"/>
    <path id="패스_1642" data-name="패스 1642" d="M0,0H1.416V13.7H0Z" transform="translate(16.993 0)"/>
    <path id="패스_1630" data-name="패스 1630" d="M0,0H1.416V13.7H0Z" transform="translate(43.941 0)"/>
    <path id="패스_1640" data-name="패스 1640" d="M0,0H1.416V13.7H0Z" transform="translate(27.04 0)"/>
    <path id="패스_1631" data-name="패스 1631" d="M0,0H1.416V13.7H0Z" transform="translate(67.603 0)"/>
    <path id="패스_1632" data-name="패스 1632" d="M0,0H1.416V13.7H0Z" transform="translate(91.265 0)"/>
    <path id="패스_1623" data-name="패스 1623" d="M0,0H1.416V13.7H0Z" transform="translate(118.76 0)"/>
    <path id="패스_1621" data-name="패스 1621" d="M0,0H1.416V13.7H0Z" transform="translate(138.584 0)"/>
    <path id="패스_1643" data-name="패스 1643" d="M0,0H2.833V13.7H0Z" transform="translate(9.914 0)"/>
    <path id="패스_1644" data-name="패스 1644" d="M0,0H1.416V13.7H0Z" transform="translate(14.163 0)"/>
    <path id="패스_1633" data-name="패스 1633" d="M0,0H2.833V13.7H0Z" transform="translate(35.564 0)"/>
    <path id="패스_1639" data-name="패스 1639" d="M0,0H2.833V13.7H0Z" transform="translate(30.485 0)"/>
    <path id="패스_1634" data-name="패스 1634" d="M0,0H1.416V13.7H0Z" transform="translate(40.563 0)"/>
    <path id="패스_1641" data-name="패스 1641" d="M0,0H1.416V13.7H0Z" transform="translate(19.829 0)"/>
    <path id="패스_1635" data-name="패스 1635" d="M0,0H2.833V13.7H0Z" transform="translate(59.268 0)"/>
    <path id="패스_1636" data-name="패스 1636" d="M0,0H1.416V13.7H0Z" transform="translate(64.225 0)"/>
    <path id="패스_1637" data-name="패스 1637" d="M0,0H2.833V13.7H0Z" transform="translate(72.818 0)"/>
    <path id="패스_1638" data-name="패스 1638" d="M0,0H1.416V13.7H0Z" transform="translate(77.742 0)"/>
    <path id="패스_1624" data-name="패스 1624" d="M0,0H2.833V13.7H0Z" transform="translate(106.687 0)"/>
    <path id="패스_1625" data-name="패스 1625" d="M0,0H1.416V13.7H0Z" transform="translate(111.544 0)"/>
    <path id="패스_1626" data-name="패스 1626" d="M0,0H2.833V13.7H0Z" transform="translate(121.591 0)"/>
    <path id="패스_1627" data-name="패스 1627" d="M0,0H1.416V13.7H0Z" transform="translate(125.839 0)"/>
  </g>
</svg>
