<svg xmlns="http://www.w3.org/2000/svg" width="12.657" height="12.654" viewBox="0 0 12.657 12.654">
  <path id="insta" d="M102.455,98.908a3.247,3.247,0,1,0,3.239,3.256A3.248,3.248,0,0,0,102.455,98.908Zm-.017,1.141a2.107,2.107,0,1,1-2.1,2.115A2.107,2.107,0,0,1,102.438,100.049Zm2.637-1.273a.757.757,0,1,1,.757.757A.757.757,0,0,1,105.075,98.775Zm3.662.768a3.5,3.5,0,0,0-3.674-3.674c-1.045-.059-4.176-.059-5.221,0a3.5,3.5,0,0,0-3.674,3.671c-.059,1.045-.059,4.176,0,5.221a3.5,3.5,0,0,0,3.674,3.674c1.045.059,4.176.059,5.221,0a3.5,3.5,0,0,0,3.674-3.674C108.8,103.717,108.8,100.588,108.738,99.543Zm-1.35,6.339a2.136,2.136,0,0,1-1.2,1.2,13.946,13.946,0,0,1-3.73.254,14.055,14.055,0,0,1-3.73-.254,2.136,2.136,0,0,1-1.2-1.2,13.946,13.946,0,0,1-.254-3.73,14.055,14.055,0,0,1,.254-3.73,2.136,2.136,0,0,1,1.2-1.2,13.946,13.946,0,0,1,3.73-.254,14.055,14.055,0,0,1,3.73.254,2.136,2.136,0,0,1,1.2,1.2,13.946,13.946,0,0,1,.254,3.73A13.938,13.938,0,0,1,107.388,105.882Z" transform="translate(-96.125 -95.825)" fill="#ea64c1"/>
</svg>
