<svg xmlns="http://www.w3.org/2000/svg" width="69.51" height="50" viewBox="0 0 69.51 50">
  <g id="whiteticket" transform="translate(18856 22683)">
    <path id="패스_1686" data-name="패스 1686" d="M69.51,41.386c0-.014,0-.026,0-.04v.08c0-.014,0-.026,0-.04" transform="translate(-18856 -22683)" fill="#fff"/>
    <path id="패스_1687" data-name="패스 1687" d="M25.85,37.77a2.68,2.68,0,1,0,2.68,2.68,2.68,2.68,0,0,0-2.68-2.68" transform="translate(-18856 -22683)" fill="#fff"/>
    <path id="패스_1688" data-name="패스 1688" d="M66.83,38.706a2.68,2.68,0,1,0,2.676,2.72v-.08a2.678,2.678,0,0,0-2.676-2.64" transform="translate(-18856 -22683)" fill="#fff"/>
    <path id="패스_1689" data-name="패스 1689" d="M56.6,23.97c-2.057,0-1.6,1.691-1.6,3.753v1.026A1.608,1.608,0,0,1,53.4,30.357H51.54a1.608,1.608,0,0,1-1.608-1.608V22.333a3.752,3.752,0,1,0-7.5-.245c0,.081,0,.163,0,.245V39.549a1.608,1.608,0,0,1-1.608,1.608H39.295a1.608,1.608,0,0,1-1.608-1.608V36.1c0-2.064.17-3.753-1.894-3.753A3.764,3.764,0,0,0,32.041,36.1v13.75c0,.049.013.1.015.145h5.632c0-.049,0-.1,0-.145v-.547A1.608,1.608,0,0,1,39.295,47.7h1.521a1.608,1.608,0,0,1,1.608,1.608V50h7.5V39.139a1.608,1.608,0,0,1,1.608-1.608h1.861A1.608,1.608,0,0,1,55,39.139V50h5.353V27.723A3.764,3.764,0,0,0,56.6,23.97" transform="translate(-18856 -22683)" fill="#fff"/>
    <path id="패스_1690" data-name="패스 1690" d="M56.6,23.97h0Z" transform="translate(-18856 -22683)" fill="#fff"/>
    <path id="패스_1691" data-name="패스 1691" d="M2.68,9.77a2.68,2.68,0,1,0,2.68,2.68A2.68,2.68,0,0,0,2.68,9.77" transform="translate(-18856 -22683)" fill="#fff"/>
    <path id="패스_1692" data-name="패스 1692" d="M43.66,10.706a2.68,2.68,0,1,0,2.68,2.68,2.68,2.68,0,0,0-2.68-2.68" transform="translate(-18856 -22683)" fill="#fff"/>
    <path id="패스_1693" data-name="패스 1693" d="M17.654,13.157H16.125a1.608,1.608,0,0,1-1.608-1.608V8.1c0-2.064.17-3.753-1.894-3.753A3.764,3.764,0,0,0,8.871,8.1v13.75a3.764,3.764,0,0,0,3.752,3.753c2.064,0,1.894-1.689,1.894-3.753v-.547A1.608,1.608,0,0,1,16.125,19.7h1.521a1.608,1.608,0,0,1,1.608,1.608V29.68a3.752,3.752,0,0,0,7.5.245c0-.082,0-.163,0-.245V11.139a1.608,1.608,0,0,1,1.608-1.608h1.861a1.608,1.608,0,0,1,1.608,1.608v11.61c0,2.064-.463,3.752,1.6,3.752a3.764,3.764,0,0,0,3.753-3.753V0H31.839V.749a1.608,1.608,0,0,1-1.608,1.608H28.37A1.608,1.608,0,0,1,26.762.749V0h-7.5V11.549a1.608,1.608,0,0,1-1.608,1.608" transform="translate(-18856 -22683)" fill="#fff"/>
  </g>
</svg>
