<svg id="그룹_602" data-name="그룹 602" xmlns="http://www.w3.org/2000/svg" width="94.777" height="102.053" viewBox="0 0 94.777 102.053">
  <g id="그룹_583" data-name="그룹 583" transform="translate(30.396 0)">
    <path id="패스_1656" data-name="패스 1656" d="M634.343,14.034v2.855a2.858,2.858,0,0,1-2.858,2.858H630.6a2.857,2.857,0,0,1-2.858-2.858V7.5a5,5,0,0,0-10,0v23a2.857,2.857,0,0,1-2.858,2.858h-.662A2.858,2.858,0,0,1,611.36,30.5V25.466a2.857,2.857,0,0,0-2.858-2.858,4.286,4.286,0,0,0-4.286,4.286v20a4.286,4.286,0,0,0,4.286,4.286,2.857,2.857,0,0,0,2.858-2.858V46.22a2.858,2.858,0,0,1,2.858-2.858h.662a2.858,2.858,0,0,1,2.858,2.858v8.432a5,5,0,0,0,10,0V32.6a2.857,2.857,0,0,1,2.858-2.858h.888a2.858,2.858,0,0,1,2.858,2.858V49.731a2.857,2.857,0,0,0,2.858,2.858,4.286,4.286,0,0,0,4.286-4.286V15.462a4.286,4.286,0,0,0-4.286-4.286,2.857,2.857,0,0,0-2.858,2.858" transform="translate(-590.651 -2.501)"/>
    <path id="패스_1657" data-name="패스 1657" d="M516.42,191.806a3.572,3.572,0,1,1-3.572-3.572,3.572,3.572,0,0,1,3.572,3.572" transform="translate(-509.276 -161.697)"/>
    <path id="패스_1658" data-name="패스 1658" d="M917.017,192.127a3.572,3.572,0,1,1-3.572-3.572,3.572,3.572,0,0,1,3.572,3.572" transform="translate(-852.636 -161.972)"/>
  </g>
  <g id="그룹_582" data-name="그룹 582" transform="translate(0 44.185)">
    <path id="패스_1659" data-name="패스 1659" d="M113.819,57.866a5.364,5.364,0,0,1-5.358-5.358V44.076a2.5,2.5,0,0,0-2.5-2.5H105.3a2.5,2.5,0,0,0-2.5,2.5v2.107A3.218,3.218,0,0,1,99.584,49.4a4.649,4.649,0,0,1-4.644-4.644v-20a4.649,4.649,0,0,1,4.644-4.644,3.218,3.218,0,0,1,3.215,3.215V28.36a2.5,2.5,0,0,0,2.5,2.5h.662a2.5,2.5,0,0,0,2.5-2.5v-23a5.358,5.358,0,1,1,10.716,0v9.386a2.5,2.5,0,0,0,2.5,2.5h.888a2.5,2.5,0,0,0,2.5-2.5V11.89a3.218,3.218,0,0,1,3.215-3.215,4.649,4.649,0,0,1,4.644,4.644v32.84a4.649,4.649,0,0,1-4.644,4.644,3.218,3.218,0,0,1-3.215-3.215V30.461a2.5,2.5,0,0,0-2.5-2.5h-.888a2.5,2.5,0,0,0-2.5,2.5V52.508a5.364,5.364,0,0,1-5.358,5.358m-8.52-17h.662a3.218,3.218,0,0,1,3.215,3.215v8.432a4.644,4.644,0,0,0,9.287,0V30.461a3.218,3.218,0,0,1,3.215-3.215h.888a3.218,3.218,0,0,1,3.215,3.215V47.587a2.5,2.5,0,0,0,2.5,2.5,3.934,3.934,0,0,0,3.929-3.929V13.319a3.934,3.934,0,0,0-3.929-3.929,2.5,2.5,0,0,0-2.5,2.5v2.855a3.218,3.218,0,0,1-3.215,3.215h-.888a3.218,3.218,0,0,1-3.215-3.215V5.358a4.644,4.644,0,1,0-9.287,0v23a3.218,3.218,0,0,1-3.215,3.215H105.3a3.218,3.218,0,0,1-3.215-3.215V23.322a2.5,2.5,0,0,0-2.5-2.5,3.934,3.934,0,0,0-3.929,3.929v20a3.934,3.934,0,0,0,3.929,3.929,2.5,2.5,0,0,0,2.5-2.5V44.076a3.218,3.218,0,0,1,3.215-3.215" transform="translate(-81.375 0)"/>
    <path id="패스_1660" data-name="패스 1660" d="M3.929,193.591a3.929,3.929,0,1,1,3.929-3.929,3.934,3.934,0,0,1-3.929,3.929m0-7.144a3.215,3.215,0,1,0,3.215,3.215,3.218,3.218,0,0,0-3.215-3.215" transform="translate(0 -159.195)"/>
    <path id="패스_1661" data-name="패스 1661" d="M404.526,193.913a3.929,3.929,0,1,1,3.929-3.929,3.934,3.934,0,0,1-3.929,3.929m0-7.144a3.215,3.215,0,1,0,3.215,3.215,3.218,3.218,0,0,0-3.215-3.215" transform="translate(-343.36 -159.471)"/>
  </g>
</svg>
