<svg xmlns="http://www.w3.org/2000/svg" width="13.558" height="16.134" viewBox="0 0 13.558 16.134">
  <path id="apple" d="M143.735,104.526a3.363,3.363,0,0,1,1.8-3.054,3.87,3.87,0,0,0-3.051-1.606c-1.279-.1-2.676.746-3.188.746-.54,0-1.779-.71-2.752-.71-2.01.032-4.146,1.6-4.146,4.8a8.972,8.972,0,0,0,.519,2.925c.461,1.322,2.125,4.564,3.861,4.51.908-.022,1.549-.645,2.73-.645,1.145,0,1.74.645,2.752.645,1.751-.025,3.256-2.972,3.7-4.3A3.571,3.571,0,0,1,143.735,104.526ZM141.7,98.611A3.392,3.392,0,0,0,142.561,96a3.819,3.819,0,0,0-2.446,1.257,3.446,3.446,0,0,0-.922,2.59A3.025,3.025,0,0,0,141.7,98.611Z" transform="translate(-132.4 -96)" fill="#fc153f"/>
</svg>
