<svg xmlns="http://www.w3.org/2000/svg" width="16.914" height="7.575" viewBox="0 0 16.914 7.575">
  <path id="soundcloud" d="M17.424,166.525a2.373,2.373,0,0,1-2.4,2.237H9.263a.483.483,0,0,1-.479-.481v-6.208a.51.51,0,0,1,.082-.3.539.539,0,0,1,.238-.2,3.065,3.065,0,0,1,1.647-.367,3.789,3.789,0,0,1,1.938.531,3.853,3.853,0,0,1,1.166,1.06,3.812,3.812,0,0,1,.64,1.438,2.27,2.27,0,0,1,.611-.085,2.316,2.316,0,0,1,.9.177,2.275,2.275,0,0,1,.759.521,2.309,2.309,0,0,1,.5.775A2.271,2.271,0,0,1,17.424,166.525Zm-9.359-4.058a.185.185,0,0,0-.008-.077.2.2,0,0,0-.04-.069.174.174,0,0,0-.063-.045.193.193,0,0,0-.153,0,.213.213,0,0,0-.063.045.162.162,0,0,0-.04.069.19.19,0,0,0-.008.077,28.559,28.559,0,0,0,0,6.123.192.192,0,0,0,.061.119.186.186,0,0,0,.249,0,.192.192,0,0,0,.061-.119,26.5,26.5,0,0,0,0-6.123Zm-1.163.722a.2.2,0,0,0-.063-.124.2.2,0,0,0-.132-.05.2.2,0,0,0-.132.05.19.19,0,0,0-.063.124,23.382,23.382,0,0,0,0,5.4.2.2,0,0,0,.066.119.2.2,0,0,0,.127.048.19.19,0,0,0,.127-.048.215.215,0,0,0,.066-.119,21.126,21.126,0,0,0,0-5.4Zm-1.171-.182a.192.192,0,0,0-.061-.122.185.185,0,0,0-.127-.048.2.2,0,0,0-.127.048.186.186,0,0,0-.061.122,23.322,23.322,0,0,0,0,5.581.178.178,0,0,0,.056.132.193.193,0,0,0,.132.056.178.178,0,0,0,.132-.056.193.193,0,0,0,.056-.132,22.276,22.276,0,0,0,0-5.581Zm-1.163.545a.206.206,0,0,0-.056-.137.185.185,0,0,0-.137-.056.2.2,0,0,0-.137.056.185.185,0,0,0-.056.137,19.884,19.884,0,0,0,0,5.044.184.184,0,0,0,.063.122.2.2,0,0,0,.127.05.192.192,0,0,0,.127-.05.2.2,0,0,0,.063-.122,18.525,18.525,0,0,0,.008-5.044Zm-1.177,1.258a.19.19,0,1,0-.381,0,11.163,11.163,0,0,0,.011,3.8.2.2,0,0,0,.061.111.175.175,0,0,0,.119.045.18.18,0,0,0,.119-.045.167.167,0,0,0,.061-.111A10.3,10.3,0,0,0,3.391,164.809Zm-1.166-.2a.216.216,0,0,0-.063-.127.188.188,0,0,0-.132-.05.206.206,0,0,0-.132.05.19.19,0,0,0-.063.127,11.725,11.725,0,0,0,.008,3.82c.019.2.36.2.381,0a10.662,10.662,0,0,0,.008-3.82Zm-1.179.65a.216.216,0,0,0-.063-.127.188.188,0,0,0-.132-.05.206.206,0,0,0-.132.05.179.179,0,0,0-.063.127,5.422,5.422,0,0,0,.016,2.522.18.18,0,0,0,.061.116.191.191,0,0,0,.124.048A.178.178,0,0,0,.98,167.9a.186.186,0,0,0,.061-.116,4.474,4.474,0,0,0,.011-2.522Z" transform="translate(-0.512 -161.2)" fill="#fbc845"/>
</svg>
