<svg xmlns="http://www.w3.org/2000/svg" width="14.194" height="14.194" viewBox="0 0 14.194 14.194">
  <path id="spotify" d="M79.1,72a7.1,7.1,0,1,0,7.1,7.1A7.1,7.1,0,0,0,79.1,72Zm2.882,10.442a.546.546,0,0,1-.306-.1,8.077,8.077,0,0,0-5.915-.7,1.847,1.847,0,0,1-.341.074.446.446,0,0,1-.452-.452.453.453,0,0,1,.389-.481,9.135,9.135,0,0,1,6.782.75.484.484,0,0,1,.278.472A.432.432,0,0,1,81.978,82.442Zm.77-1.877a.707.707,0,0,1-.352-.12,9.273,9.273,0,0,0-6.828-.841,1.179,1.179,0,0,1-.341.074.556.556,0,0,1-.555-.555.563.563,0,0,1,.444-.592,9.625,9.625,0,0,1,2.8-.389,10.017,10.017,0,0,1,5.065,1.3.6.6,0,0,1,.323.564A.554.554,0,0,1,82.748,80.565Zm.887-2.181a.658.658,0,0,1-.369-.112,11.831,11.831,0,0,0-8.038-.85,1.359,1.359,0,0,1-.369.074.66.66,0,0,1-.667-.675.676.676,0,0,1,.5-.684,13.277,13.277,0,0,1,9.24.933.672.672,0,0,1,.369.647A.663.663,0,0,1,83.635,78.384Z" transform="translate(-72 -72)" fill="#0fbf00"/>
</svg>
