<svg id="top_logo_w" xmlns="http://www.w3.org/2000/svg" width="50.048" height="46.279" viewBox="0 0 50.048 46.279">
  <path id="패스_1" data-name="패스 1" d="M577.753,181.811a2.9,2.9,0,1,1-2.9-2.9,2.9,2.9,0,0,1,2.9,2.9" transform="translate(-571.963 -158.198)" fill="#fff"/>
  <path id="패스_2" data-name="패스 2" d="M959.963,190.621a2.9,2.9,0,1,1-2.9-2.9,2.9,2.9,0,0,1,2.9,2.9" transform="translate(-909.915 -165.988)" fill="#fff"/>
  <path id="패스_3" data-name="패스 3" d="M681.16,5.822h0c-2.229,0-1.729,1.824-1.729,4.053v1.108a1.737,1.737,0,0,1-1.737,1.737h-2.01a1.737,1.737,0,0,1-1.737-1.737V4.053a4.053,4.053,0,0,0-8.106,0v18.6a1.737,1.737,0,0,1-1.737,1.737h-1.651a1.737,1.737,0,0,1-1.737-1.737v-3.72c0-2.229.184-4.053-2.045-4.053a4.065,4.065,0,0,0-4.053,4.053v14.85a4.065,4.065,0,0,0,4.053,4.053c2.229,0,2.045-1.824,2.045-4.053v-.59a1.737,1.737,0,0,1,1.737-1.737H664.1a1.737,1.737,0,0,1,1.737,1.737v9.038a4.053,4.053,0,1,0,8.106,0V22.2a1.737,1.737,0,0,1,1.737-1.737h2.01a1.737,1.737,0,0,1,1.737,1.737V34.743c0,2.229-.5,4.053,1.729,4.053h0a4.065,4.065,0,0,0,4.053-4.053V9.875a4.065,4.065,0,0,0-4.053-4.053" transform="translate(-645.047)" fill="#fff"/>
</svg>
