<svg id="whitefavoticket" xmlns="http://www.w3.org/2000/svg" width="9.181" height="8.49" viewBox="0 0 9.181 8.49">
  <path id="패스_1" data-name="패스 1" d="M573.025,179.447a.531.531,0,1,1-.531-.531.531.531,0,0,1,.531.531" transform="translate(-571.963 -175.115)" fill="#fff"/>
  <path id="패스_2" data-name="패스 2" d="M955.235,188.257a.531.531,0,1,1-.531-.531.531.531,0,0,1,.531.531" transform="translate(-946.054 -183.738)" fill="#fff"/>
  <path id="패스_3" data-name="패스 3" d="M659.487,1.068h0c-.409,0-.317.335-.317.743v.2a.319.319,0,0,1-.319.319h-.369a.319.319,0,0,1-.319-.319V.743a.743.743,0,1,0-1.487,0V4.155a.319.319,0,0,1-.319.319h-.3a.319.319,0,0,1-.319-.319V3.472c0-.409.034-.743-.375-.743a.746.746,0,0,0-.743.743V6.2a.746.746,0,0,0,.743.743c.409,0,.375-.335.375-.743V6.088a.319.319,0,0,1,.319-.319h.3a.319.319,0,0,1,.319.319V7.746a.743.743,0,1,0,1.487,0V4.073a.319.319,0,0,1,.319-.319h.369a.319.319,0,0,1,.319.319v2.3c0,.409-.092.743.317.743h0a.746.746,0,0,0,.744-.744V1.811a.746.746,0,0,0-.744-.743" transform="translate(-652.862)" fill="#fff"/>
</svg>
