<svg xmlns="http://www.w3.org/2000/svg" width="16.219" height="11.402" viewBox="0 0 16.219 11.402">
  <path id="youtube" d="M62.877,129.785a2.03,2.03,0,0,0-1.434-1.443A48.047,48.047,0,0,0,55.109,128a48.111,48.111,0,0,0-6.337.341,2.036,2.036,0,0,0-1.434,1.443,22.965,22.965,0,0,0,0,7.857,2.009,2.009,0,0,0,1.434,1.419,48.113,48.113,0,0,0,6.337.341,48.113,48.113,0,0,0,6.337-.341,2.009,2.009,0,0,0,1.434-1.419,22.965,22.965,0,0,0,0-7.857Zm-9.428,6.34V131.3l4.237,2.411Z" transform="translate(-47 -128)" fill="#ea6466"/>
</svg>
